<svg width="142" height="138" viewBox="0 0 142 138" fill="none" xmlns="http://www.w3.org/2000/svg">
<path d="M15.9763 -9H14.7863C14.0363 -9 13.2763 -8.85001 12.5463 -8.74001L11.6563 -8.61C10.7563 -8.49 9.85632 -8.33 9.17632 -8.2L8.34631 -8.06C7.76449 -7.97902 7.18709 -7.86888 6.61631 -7.73C6.25631 -7.63 5.88631 -7.51 5.50631 -7.37C5.06292 -7.2076 4.62892 -7.02065 4.20632 -6.81C3.8498 -6.58493 3.51502 -6.32717 3.20632 -6.04001L3.10632 -5.95L3.00631 -5.86C2.62457 -5.51039 2.28857 -5.11392 2.00631 -4.68001C1.8595 -4.46169 1.73233 -4.23079 1.62631 -3.99001L1.37631 -3.77C0.756985 -3.14592 0.399296 -2.30894 0.376314 -1.43001C0.246314 0.239992 0.096313 2.46 0.016313 4.72C0.016313 5.39 0.016313 6.07 0.016313 6.72C0.016313 6.98 0.016313 7.23 0.016313 7.48C0.016313 8.57 0.016313 9.66 0.016313 10.75C0.016313 12.16 0.016313 13.59 0.016313 14.98C0.016313 17.39 -0.0536851 19.87 0.0963149 22.31C0.172417 23.5143 0.31934 24.713 0.536317 25.9C0.710294 26.8387 1.04884 27.7392 1.53632 28.56C2.43594 29.9507 3.75187 31.0216 5.29631 31.62C6.04849 31.9559 6.82799 32.2269 7.62631 32.43C8.28631 32.59 8.96631 32.69 9.62631 32.79C10.5663 32.92 11.5163 33.02 12.3263 33.1C13.1363 33.18 14.0563 33.25 15.0163 33.3C15.9763 33.35 16.6763 33.37 17.3963 33.37C18.5397 33.3767 19.6823 33.3065 20.8163 33.16L21.2663 33.11C21.8374 33.0459 22.4048 32.9525 22.9663 32.83C23.4665 32.7152 23.9604 32.5751 24.4463 32.41C25.5131 32.0531 26.5497 31.6117 27.5463 31.09C27.9123 30.8947 28.2663 30.6777 28.6063 30.44C29.1876 30.0722 29.7304 29.6467 30.2263 29.17C31.0402 28.3852 31.7163 27.4691 32.2263 26.46C32.8614 25.1946 33.3222 23.849 33.5963 22.46C33.8344 21.2333 34.0079 19.9949 34.1163 18.75C34.2863 17.05 34.3163 15.31 34.3563 13.62V13.09C34.3563 11.01 34.4163 9.09 34.4163 7.2C34.4218 5.09237 34.2006 2.99027 33.7563 0.929993C33.5024 -0.190316 33.1199 -1.27752 32.6163 -2.31C32.1988 -3.16145 31.6138 -3.91992 30.8963 -4.54001C30.2876 -5.0649 29.6158 -5.51168 28.8963 -5.87C27.8687 -6.33472 26.8134 -6.73549 25.7363 -7.07001L25.2563 -7.23C24.6463 -7.43 24.0063 -7.64001 23.3763 -7.82001C21.4171 -8.38978 19.408 -8.7715 17.3763 -8.96001C17.0063 -8.98001 16.4863 -9 15.9763 -9Z" fill="#69B99D"/>
<path d="M72.7464 16.2299C73.3331 16.2299 73.9231 16.2299 74.5164 16.2299C75.9492 16.3012 77.3738 16.4885 78.7764 16.7899C79.3699 16.9143 79.952 17.0882 80.5164 17.3099C81.2705 17.5711 81.9867 17.9308 82.6464 18.3799C83.3875 18.8575 83.9582 19.5576 84.2764 20.3799C84.4774 20.8107 84.6478 21.2551 84.7864 21.7099C84.9691 22.2984 85.1062 22.9002 85.1964 23.5099C85.5915 26.3148 85.712 29.1515 85.5564 31.9799C85.5564 33.3099 85.4964 34.6499 85.4364 35.9799C85.4014 37.4655 85.2812 38.948 85.0764 40.4199C85.0219 40.9528 84.9009 41.4769 84.7164 41.9799C84.5625 42.4104 84.3752 42.8284 84.1564 43.2299C83.9365 43.613 83.6857 43.9776 83.4064 44.3199C83.164 44.6407 82.8855 44.9326 82.5764 45.1899C82.2622 45.4346 81.9276 45.652 81.5764 45.8399C81.3251 45.9749 81.0644 46.0919 80.7964 46.1899C80.5002 46.3158 80.1962 46.4227 79.8864 46.5099C79.5844 46.5966 79.2771 46.6634 78.9664 46.7099C78.4964 46.7699 78.0364 46.8499 77.5664 46.8799C76.2264 46.9699 74.8864 46.9899 73.5664 46.9499L71.4664 46.8599L70.4664 46.7699C70.0031 46.7284 69.5424 46.6617 69.0864 46.5699C68.6901 46.5067 68.3014 46.4028 67.9264 46.2599C67.4241 46.0745 66.9444 45.833 66.4964 45.5399C66.0189 45.2141 65.6082 44.8 65.2864 44.3199C64.9907 43.845 64.7492 43.3385 64.5664 42.8099C64.3094 42.0397 64.1515 41.2399 64.0964 40.4299C63.9631 39.1946 63.9096 37.952 63.9364 36.7099C63.9364 33.9599 64.0464 31.1999 64.0864 28.4499C64.0864 27.1165 64.0864 25.7832 64.0864 24.4499V23.9199C64.0282 23.3752 64.0048 22.8275 64.0164 22.2799C64.0164 22.1599 64.0164 22.0399 64.0164 21.9199C64.0164 21.4099 64.0164 20.9199 63.9464 20.3999C63.9353 20.1147 63.9889 19.8307 64.1032 19.5691C64.2175 19.3076 64.3895 19.0754 64.6064 18.8899C64.6898 18.7254 64.7868 18.5682 64.8964 18.4199C65.2764 17.8687 65.7888 17.4217 66.3864 17.1199C66.7564 16.9325 67.141 16.7753 67.5364 16.6499C67.8228 16.5735 68.1132 16.5135 68.4064 16.4699C69.1702 16.3416 69.9421 16.2681 70.7164 16.2499L72.7464 16.2299ZM69.1764 19.9799C68.9462 20.0212 68.719 20.078 68.4964 20.1499L68.2764 20.2799L68.2064 20.3499V20.3999C68.2864 21.6699 68.3564 22.9399 68.3864 24.2199C68.4664 26.8865 68.5331 29.5732 68.5864 32.2799C68.5864 34.8499 68.5864 37.4099 68.9364 39.9599C69.0198 40.5469 69.1537 41.1257 69.3364 41.6899V41.7599L69.5364 41.8699C70.0069 42.025 70.4882 42.1453 70.9764 42.2299C72.1964 42.3699 73.4264 42.4599 74.6564 42.5299C75.9116 42.6149 77.1712 42.6149 78.4264 42.5299C78.8614 42.4554 79.2896 42.345 79.7064 42.1999L80.0164 42.0199C80.1472 41.8972 80.2708 41.767 80.3864 41.6299C80.5353 41.4023 80.6689 41.1651 80.7864 40.9199C80.8861 40.6425 80.9663 40.3584 81.0264 40.0699C81.2362 37.5891 81.3163 35.099 81.2664 32.6099C81.325 29.9843 81.2482 27.3575 81.0364 24.7399C80.9142 23.8249 80.7032 22.924 80.4064 22.0499L80.3064 21.8799L80.1464 21.7099C79.8256 21.5076 79.4915 21.3272 79.1464 21.1699C78.9064 21.0799 78.6764 20.9899 78.4264 20.9199C78.1764 20.8499 77.6664 20.7099 77.2864 20.6199C76.5683 20.4362 75.8405 20.2927 75.1064 20.1899C74.1064 20.0699 73.1764 19.9699 72.2064 19.9099L70.4864 19.9199C70.0489 19.9114 69.6113 19.9315 69.1764 19.9799Z" fill="#69B99D"/>
<path d="M102.237 83.9199C103.527 83.9199 104.827 83.9199 106.117 84.0099C106.767 84.0099 107.407 84.0999 108.057 84.0999C108.707 84.0999 109.257 84.0999 109.857 84.0999C111.29 84.1374 112.717 84.3115 114.117 84.6199C115.357 84.8999 116.607 85.1399 117.847 85.4399C119.413 85.687 120.911 86.2556 122.247 87.1099C122.689 87.4197 123.098 87.775 123.467 88.1699C123.867 88.5886 124.204 89.0637 124.467 89.5799C124.827 90.3008 125.118 91.0542 125.337 91.8299C125.677 93.0399 125.977 94.2599 126.287 95.4799C126.937 97.9799 127.347 100.48 127.747 103.08C127.957 104.39 128.177 105.7 128.357 107.02C128.577 108.59 128.717 110.17 128.807 111.76C128.947 114.38 129.067 117 128.987 119.62C128.987 121.08 128.877 122.54 128.797 124C128.707 125.548 128.537 127.09 128.287 128.62C128.14 129.504 127.877 130.364 127.507 131.18C127.207 131.8 126.827 132.379 126.377 132.9C125.863 133.501 125.255 134.014 124.577 134.42C123.99 134.77 123.378 135.078 122.747 135.34H122.677L122.347 135.48L122.207 135.54C121.597 135.79 120.977 136.04 120.347 136.26C119.717 136.48 119.097 136.66 118.467 136.84L117.287 137.17C116.471 137.368 115.642 137.512 114.807 137.6C114.187 137.68 113.547 137.74 112.917 137.79C110.158 137.982 107.391 138.028 104.627 137.93C101.742 137.885 98.8657 137.604 96.0268 137.09C94.7492 136.852 93.4869 136.538 92.2468 136.15C91.4475 135.901 90.6629 135.607 89.8968 135.27C89.3158 135.031 88.7679 134.719 88.2668 134.34C87.6145 133.893 87.0599 133.318 86.6368 132.65C86.3468 132.152 86.1344 131.612 86.0068 131.05C85.8521 130.241 85.7519 129.422 85.7068 128.6C85.6268 127.33 85.5968 126.06 85.6368 124.79C85.8268 119.27 85.9168 113.74 86.0268 108.22C86.0968 104.8 86.1668 101.38 86.1968 97.9599C86.1058 97.8584 86.0253 97.7478 85.9568 97.6299C85.7778 97.3272 85.6845 96.9816 85.6868 96.6299C85.6118 95.3377 85.6118 94.0422 85.6868 92.7499C85.6555 91.2345 85.963 89.7313 86.5868 88.3499C87.0321 87.4475 87.726 86.6912 88.5868 86.1699C89.2226 85.8342 89.8932 85.5693 90.5868 85.3799C91.1768 85.2099 91.7668 84.9999 92.3768 84.8699C92.9868 84.7399 93.5468 84.5999 94.1368 84.5099C94.7268 84.4199 95.3168 84.3199 95.9068 84.2199C96.6768 84.0999 97.4468 84.0199 98.2268 83.9499C99.4868 83.9199 100.877 83.9199 102.237 83.9199ZM94.8168 88.5999L93.2968 88.8199L93.6268 88.7699C93.0368 88.8799 92.4568 89.0199 91.8768 89.1799C91.4768 89.2899 91.0768 89.3899 90.6868 89.5299L90.3268 89.7199L90.2268 89.8299C90.1068 90.0099 89.9968 90.1799 89.8868 90.3699C89.7768 90.5599 89.7968 90.7299 89.7568 90.9199C89.6768 91.7599 89.6768 92.6199 89.6668 93.4699C89.6568 94.3199 89.6668 94.8899 89.6668 95.5999V96.2199C89.7268 101.68 89.8468 107.15 89.9668 112.61C90.0268 115.44 90.0768 118.26 90.1468 121.08C90.2068 123.54 90.2768 126 90.5668 128.44C90.6348 128.995 90.7485 129.544 90.9068 130.08V130.17L91.1668 130.42C91.5308 130.661 91.9118 130.875 92.3068 131.06C93.3363 131.455 94.3881 131.789 95.4568 132.06C96.0568 132.21 96.6568 132.36 97.2668 132.47C97.8768 132.58 98.6768 132.71 99.3868 132.81C102.044 133.09 104.715 133.221 107.387 133.2C108.687 133.2 109.977 133.2 111.267 133.2C112.557 133.2 113.637 133.05 114.817 132.91C115.975 132.689 117.118 132.391 118.237 132.02C118.977 131.8 119.697 131.53 120.417 131.24L120.747 131.09C121.259 130.858 121.751 130.584 122.217 130.27L122.607 129.9C122.717 129.73 122.817 129.55 122.917 129.37C123.062 128.929 123.172 128.478 123.247 128.02C123.375 126.774 123.438 125.522 123.437 124.27C123.437 122.81 123.437 121.34 123.437 119.88C123.437 118.42 123.377 117.15 123.307 115.79C123.167 113.28 123.047 110.79 122.737 108.29C122.497 106.55 122.217 104.82 121.987 103.09C121.757 101.36 121.427 99.3799 120.987 97.5299C120.787 96.5899 120.587 95.6399 120.357 94.6999C120.127 93.7599 119.967 93.0899 119.697 92.3099C119.597 92.1299 119.497 91.9499 119.387 91.7799C119.25 91.6202 119.103 91.4699 118.947 91.3299C118.789 91.227 118.626 91.1335 118.457 91.0499C117.239 90.6072 115.997 90.2332 114.737 89.9299C114.057 89.7599 113.377 89.5799 112.737 89.3899C112.188 89.2366 111.63 89.1164 111.067 89.0299C110.547 88.9699 110.067 88.9299 109.507 88.8899C108.947 88.8499 108.357 88.8899 107.777 88.8099L105.927 88.6699C104.567 88.5799 103.197 88.4999 101.827 88.4399C100.457 88.3799 99.1968 88.3099 97.8868 88.3599C96.8768 88.3499 95.8468 88.4699 94.8168 88.5999Z" fill="#99DDC6"/>
<path d="M112.376 26.3799H113.376C114.716 26.3799 116.056 26.4699 117.376 26.5499C118.696 26.6299 120.096 26.7199 121.456 26.7799C122.816 26.8399 124.026 26.9899 125.316 27.0699C126.606 27.1499 127.956 27.2799 129.316 27.3699C130.779 27.4195 132.229 27.6479 133.636 28.0499C134.375 28.3013 135.091 28.6158 135.776 28.9899C136.561 29.3874 137.261 29.9343 137.836 30.5999C138.32 31.1749 138.726 31.8102 139.046 32.4899C139.356 33.2199 139.636 33.9499 139.876 34.7099C140.274 35.9187 140.566 37.1601 140.746 38.4199C140.961 39.9309 141.082 41.4538 141.106 42.9799C141.105 44.23 141.028 45.479 140.876 46.7199C140.726 48.2199 140.616 49.7199 140.346 51.2099C140.128 52.5172 139.794 53.8023 139.346 55.0499C139.08 55.7765 138.745 56.4763 138.346 57.1399C138.154 57.4271 137.947 57.7042 137.726 57.9699C137.6 58.1531 137.456 58.3239 137.296 58.4799C136.873 58.8658 136.407 59.2014 135.906 59.4799C134.458 60.2018 132.873 60.6107 131.256 60.6799C129.926 60.8299 128.596 60.9399 127.256 61.0199C125.916 61.0999 124.586 61.0999 123.256 61.1099C121.926 61.1199 120.606 61.1099 119.256 61.1099C117.906 61.1099 116.446 61.1099 115.036 61.0299C113.626 60.9499 112.486 60.8499 111.216 60.7599C109.946 60.6699 108.566 60.5399 107.216 60.3799C106.306 60.2699 105.396 60.1599 104.496 59.9799C103.821 59.8493 103.154 59.6824 102.496 59.4799C100.764 59.0808 99.1859 58.184 97.9564 56.8999C97.6089 56.4994 97.2945 56.0713 97.0164 55.6199C96.742 55.1485 96.511 54.6531 96.3264 54.1399C96.0419 53.2943 95.8573 52.4183 95.7764 51.5299C95.6514 50.2763 95.6514 49.0134 95.7764 47.7599C95.8764 46.3599 96.0564 44.9599 96.2464 43.5699L96.6364 40.6699C96.8264 39.0499 97.0064 37.4399 97.2764 35.8399C97.3895 35.2008 97.5431 34.5695 97.7364 33.9499C97.9172 33.3571 98.1343 32.776 98.3864 32.2099C98.6691 31.6384 99.0218 31.1043 99.4364 30.6199C99.9398 29.9845 100.533 29.4254 101.196 28.9599L101.486 28.9199L101.676 28.7999C102.236 28.4721 102.821 28.1911 103.426 27.9599C104.901 27.296 106.5 26.9551 108.116 26.9599C108.404 26.8011 108.728 26.7185 109.056 26.7199H109.346C110.026 26.6299 110.696 26.5499 111.346 26.5099C111.716 26.3899 112.046 26.3799 112.376 26.3799ZM108.756 31.8499C108.561 31.8726 108.368 31.906 108.176 31.9499C107.734 32.048 107.3 32.1784 106.876 32.3399C106.216 32.6199 105.581 32.9544 104.976 33.3399L104.776 33.4699C104.639 33.5991 104.509 33.736 104.386 33.8799C104.204 34.145 104.04 34.4223 103.896 34.7099C103.631 35.5498 103.43 36.4091 103.296 37.2799C102.996 39.6999 102.806 42.1399 102.506 44.5599C102.346 45.9099 102.226 47.2599 102.156 48.6199C102.086 49.6754 102.086 50.7344 102.156 51.7899C102.226 52.0799 102.296 52.3699 102.386 52.6599C102.487 52.8488 102.597 53.0324 102.716 53.2099L102.856 53.3599C103.143 53.5409 103.44 53.7045 103.746 53.8499C104.541 54.1601 105.356 54.4141 106.186 54.6099C107.076 54.8199 107.996 54.9399 108.906 55.0799C110.006 55.2199 111.106 55.3299 112.206 55.4699C113.576 55.6499 114.936 55.7599 116.316 55.8299C119.026 55.9799 121.746 56.0099 124.466 56.0499C126.941 56.0985 129.417 55.9815 131.876 55.6999C132.335 55.6335 132.787 55.5264 133.226 55.3799L133.646 55.1399L133.836 54.9399C134.111 54.5199 134.352 54.0785 134.556 53.6199C134.946 52.3884 135.237 51.1277 135.426 49.8499C135.526 49.0299 135.596 48.2099 135.656 47.3899C135.716 46.5699 135.836 45.5999 135.906 44.6999C135.976 43.7999 135.986 42.8399 135.976 41.8999C135.966 40.9599 135.926 40.0899 135.826 39.1899C135.718 38.3112 135.557 37.4397 135.346 36.5799C135.139 35.7005 134.885 34.8326 134.586 33.9799C134.479 33.7449 134.355 33.5177 134.216 33.2999L134.126 33.2099C133.849 33.031 133.562 32.8675 133.266 32.7199C132.673 32.4985 132.06 32.3312 131.436 32.2199C130.436 32.1299 129.436 32.1099 128.516 32.0399C127.396 31.9499 126.276 31.9099 125.156 31.8199C123.846 31.7299 122.536 31.6199 121.226 31.5599C119.916 31.4999 118.716 31.4399 117.456 31.3599H116.836C114.126 31.5099 111.426 31.5599 108.756 31.8499Z" fill="#4D4962"/>
<path d="M68.9963 71.08C68.9963 71.33 68.9963 71.5699 68.9963 71.8199C68.9963 72.8199 68.9363 73.8199 68.8763 74.8199C68.8163 75.8199 68.7463 76.88 68.6963 77.91C68.6463 78.94 68.5463 79.85 68.4863 80.83C68.4263 81.81 68.3263 82.83 68.2463 83.83C68.2118 84.9401 68.0405 86.0417 67.7363 87.11C67.5494 87.6672 67.3117 88.2061 67.0263 88.72C66.7305 89.3207 66.3154 89.8549 65.8063 90.2899C65.3741 90.6554 64.8927 90.9583 64.3763 91.19C63.828 91.4327 63.2672 91.6463 62.6963 91.83C61.7802 92.1298 60.8401 92.3506 59.8863 92.49C58.7428 92.6498 57.5907 92.74 56.4363 92.7599C55.487 92.7548 54.5387 92.6947 53.5963 92.58C52.4663 92.47 51.3263 92.3899 50.2063 92.1799C49.2145 92.0141 48.2403 91.7564 47.2963 91.41C46.7429 91.2007 46.2105 90.9396 45.7063 90.63C45.4863 90.49 45.2863 90.32 45.0863 90.17C44.9493 90.0649 44.8191 89.9513 44.6963 89.83C44.3947 89.5129 44.1328 89.1603 43.9163 88.78C43.3667 87.6839 43.0533 86.4847 42.9963 85.2599C42.8863 84.2599 42.8063 83.2599 42.7463 82.2599C42.6863 81.2599 42.6863 80.2599 42.6763 79.2599C42.6663 78.2599 42.6763 77.2599 42.6763 76.2599C42.6763 75.2599 42.6763 74.13 42.7263 73.06C42.7763 71.99 42.8663 71.14 42.9363 70.17C43.0063 69.2 43.0963 68.17 43.2263 67.17C43.3063 66.48 43.3863 65.79 43.5263 65.11C43.6271 64.6038 43.7539 64.1031 43.9063 63.61C44.2151 62.2895 44.9116 61.0915 45.9063 60.17C46.2195 59.9062 46.554 59.6687 46.9063 59.4599C47.2638 59.2543 47.6385 59.0803 48.0263 58.94C48.6732 58.7183 49.3449 58.5772 50.0263 58.52C50.9739 58.425 51.9287 58.425 52.8763 58.52C53.9463 58.59 54.9963 58.73 56.0563 58.88L58.2463 59.17C59.4663 59.32 60.6963 59.4499 61.9063 59.6499C62.389 59.7406 62.8663 59.8575 63.3363 60C63.7861 60.1396 64.2269 60.3066 64.6563 60.5C65.0882 60.7112 65.4915 60.9767 65.8563 61.2899C66.336 61.6726 66.7601 62.1203 67.1163 62.6199L67.2363 62.81L67.3263 62.95C67.5715 63.3738 67.7854 63.815 67.9663 64.27C68.4673 65.3899 68.7263 66.603 68.7263 67.83C68.8496 68.05 68.9149 68.2977 68.9163 68.55V68.77C68.9863 69.28 69.0463 69.77 69.0763 70.31C68.9963 70.58 68.9963 70.83 68.9963 71.08ZM64.8663 68.34C64.8663 68.19 64.8663 68.0399 64.7863 67.8999C64.7082 67.5604 64.608 67.2264 64.4863 66.8999C64.2642 66.4004 64.0034 65.9189 63.7063 65.4599L63.5963 65.31C63.504 65.2026 63.4037 65.1023 63.2963 65.0099C63.0956 64.8714 62.8851 64.7478 62.6663 64.64C62.0116 64.4385 61.3432 64.2848 60.6663 64.1799C58.8363 63.9599 56.9963 63.81 55.1563 63.59C54.1563 63.47 53.1563 63.3799 52.0863 63.3199C51.2871 63.27 50.4855 63.27 49.6863 63.3199C49.4625 63.3648 49.2419 63.425 49.0263 63.5C48.8798 63.5679 48.7393 63.6482 48.6063 63.74L48.4963 63.8499C48.3579 64.0664 48.231 64.2901 48.1163 64.52C47.8844 65.1229 47.6939 65.741 47.5463 66.3699C47.3863 67.0499 47.2963 67.7399 47.1863 68.3699C47.0863 69.2099 46.9963 70.05 46.8863 70.88C46.7563 71.88 46.6763 72.95 46.6163 73.99C46.5063 76.04 46.4863 78.1 46.4563 80.16C46.4179 82.0337 46.5048 83.9078 46.7163 85.77C46.7717 86.1097 46.8553 86.4442 46.9663 86.77C47.0188 86.8775 47.0789 86.9811 47.1463 87.08L47.2963 87.2299C47.6153 87.4353 47.9496 87.6159 48.2963 87.77C49.2304 88.0663 50.1868 88.287 51.1563 88.4299C51.7763 88.4999 52.3963 88.5599 53.0163 88.5999C53.6363 88.6399 54.3663 88.7399 55.0163 88.7899C55.6663 88.8399 56.4263 88.8499 57.1363 88.7899C57.8244 88.7882 58.512 88.7515 59.1963 88.6799C59.8698 88.6018 60.5378 88.4815 61.1963 88.3199C61.8729 88.1627 62.5406 87.9691 63.1963 87.74C63.3747 87.66 63.5483 87.5698 63.7163 87.47L63.7763 87.3999C63.913 87.1912 64.0366 86.9741 64.1463 86.75C64.3172 86.2964 64.4444 85.8276 64.5263 85.3499C64.5963 84.6199 64.6063 83.8799 64.6663 83.1499C64.7263 82.4199 64.7663 81.4499 64.8263 80.5999C64.8863 79.7499 64.9863 78.5999 65.0263 77.5999C65.0663 76.5999 65.1163 75.69 65.1763 74.74C65.1763 74.58 65.1763 74.43 65.1763 74.27C65.1163 72.4 65.0763 70.36 64.8663 68.34Z" fill="#4D4962"/>
</svg>
